<svg width="228" height="228" viewBox="0 0 228 228" fill="none" xmlns="http://www.w3.org/2000/svg">
<path fill-rule="evenodd" clip-rule="evenodd" d="M0.5 21C0.5 9.67816 9.67817 0.5 21 0.5H207C218.322 0.5 227.5 9.67816 227.5 21V49C227.5 60.3218 218.322 69.5 207 69.5H21C9.67816 69.5 0.5 60.3218 0.5 49V21ZM21.5 21.5V48.5H206.5V21.5H21.5Z" fill="#333333"/>
<path fill-rule="evenodd" clip-rule="evenodd" d="M0.5 100C0.5 88.6782 9.67817 79.5 21 79.5H207C218.322 79.5 227.5 88.6782 227.5 100V128C227.5 139.322 218.322 148.5 207 148.5H21C9.67816 148.5 0.5 139.322 0.5 128V100ZM21.5 100.5V127.5H206.5V100.5H21.5Z" fill="#333333"/>
<path fill-rule="evenodd" clip-rule="evenodd" d="M0.5 179C0.5 167.678 9.67817 158.5 21 158.5H207C218.322 158.5 227.5 167.678 227.5 179V207C227.5 218.322 218.322 227.5 207 227.5H21C9.67816 227.5 0.5 218.322 0.5 207V179ZM21.5 179.5V206.5H206.5V179.5H21.5Z" fill="#333333"/>
</svg>
