<svg width="184" height="231" viewBox="0 0 184 231" fill="none" xmlns="http://www.w3.org/2000/svg">
<path fill-rule="evenodd" clip-rule="evenodd" d="M34.8571 24C32.0019 24 29.2483 25.1406 27.2064 27.1954C25.1619 29.2526 24 32.0586 24 35V196C24 198.941 25.1619 201.747 27.2064 203.805C29.2483 205.859 32.0019 207 34.8571 207H149.143C151.998 207 154.752 205.859 156.794 203.805C158.838 201.747 160 198.941 160 196V85.9487L98.4361 24H34.8571ZM160.139 86.0881C160.139 86.0889 160.14 86.0898 160.141 86.0906L160.14 86.0893L160.139 86.0881ZM10.183 10.2777C16.7142 3.70577 25.5882 0 34.8571 0H98.6997C104.936 0.00134087 110.902 2.4959 115.289 6.91069M115.29 6.91198L177.162 69.1704C177.162 69.1708 177.163 69.1713 177.163 69.1717C181.548 73.5833 183.999 79.551 184 85.7584V196C184 205.259 180.346 214.153 173.817 220.722C167.286 227.294 158.412 231 149.143 231H34.8571C25.5882 231 16.7142 227.294 10.183 220.722C3.65439 214.153 0 205.259 0 196V35C0 25.7415 3.65439 16.8472 10.183 10.2777M92 80.5C98.6274 80.5 104 85.8726 104 92.5V132.401L117.774 118.541C122.446 113.84 130.044 113.817 134.745 118.488C139.445 123.16 139.469 130.758 134.797 135.459L100.512 169.959C98.2591 172.225 95.1956 173.5 92 173.5C88.8045 173.5 85.7409 172.225 83.4883 169.959L49.2026 135.459C44.5309 130.758 44.5546 123.16 49.2555 118.488C53.9563 113.817 61.5543 113.84 66.226 118.541L80 132.401V92.5C80 85.8726 85.3726 80.5 92 80.5Z" fill="#5AA3D7"/>
</svg>
