<svg width="229" height="229" viewBox="0 0 229 229" fill="none" xmlns="http://www.w3.org/2000/svg">
<path d="M206.1 0H22.9C10.305 0 0 10.305 0 22.9V206.1C0 218.695 10.305 229 22.9 229H206.1C218.695 229 229 218.695 229 206.1V22.9C229 10.305 218.695 0 206.1 0ZM68.7 206.1H22.9V160.3H68.7V206.1ZM68.7 137.4H22.9V91.6H68.7V137.4ZM68.7 68.7H22.9V22.9H68.7V68.7ZM137.4 206.1H91.6V160.3H137.4V206.1ZM137.4 137.4H91.6V91.6H137.4V137.4ZM137.4 68.7H91.6V22.9H137.4V68.7ZM206.1 206.1H160.3V160.3H206.1V206.1ZM206.1 137.4H160.3V91.6H206.1V137.4ZM206.1 68.7H160.3V22.9H206.1V68.7Z" fill="#333333"/>
</svg>
