<svg width="75" height="75" viewBox="0 0 75 75" fill="none" xmlns="http://www.w3.org/2000/svg">
<path d="M15.8235 19.7651H11.8823C9.79178 19.7651 7.78689 20.5956 6.30867 22.0738C4.83045 23.552 4 25.5569 4 27.6474V63.1178C4 65.2083 4.83045 67.2132 6.30867 68.6914C7.78689 70.1696 9.79178 71.0001 11.8823 71.0001H47.3527C49.4432 71.0001 51.4481 70.1696 52.9263 68.6914C54.4045 67.2132 55.235 65.2083 55.235 63.1178V59.1766" stroke="#5AA3D7" stroke-width="7" stroke-linecap="round" stroke-linejoin="round"/>
<path d="M51.2939 11.8827L63.1173 23.7062M68.5758 18.1294C70.128 16.5772 71 14.472 71 12.2768C71 10.0817 70.128 7.97644 68.5758 6.42423C67.0236 4.87202 64.9184 4 62.7232 4C60.528 4 58.4228 4.87202 56.8706 6.42423L23.7058 39.4708V51.2942H35.5293L68.5758 18.1294Z" stroke="#5AA3D7" stroke-width="7" stroke-linecap="round" stroke-linejoin="round"/>
</svg>
