<svg width="200" height="200" viewBox="0 0 200 200" fill="none" xmlns="http://www.w3.org/2000/svg">
<path d="M56 80C56 76.8174 57.2643 73.7652 59.5147 71.5147C61.7652 69.2643 64.8174 68 68 68H132C135.183 68 138.235 69.2643 140.485 71.5147C142.736 73.7652 144 76.8174 144 80C144 83.1826 142.736 86.2348 140.485 88.4853C138.235 90.7357 135.183 92 132 92H68C64.8174 92 61.7652 90.7357 59.5147 88.4853C57.2643 86.2348 56 83.1826 56 80ZM88 108H68C64.8174 108 61.7652 109.264 59.5147 111.515C57.2643 113.765 56 116.817 56 120C56 123.183 57.2643 126.235 59.5147 128.485C61.7652 130.736 64.8174 132 68 132H88C91.1826 132 94.2348 130.736 96.4853 128.485C98.7357 126.235 100 123.183 100 120C100 116.817 98.7357 113.765 96.4853 111.515C94.2348 109.264 91.1826 108 88 108ZM200 20V128.69C200.007 131.317 199.493 133.92 198.487 136.347C197.481 138.774 196.004 140.978 194.14 142.83L142.83 194.14C140.978 196.004 138.774 197.481 136.347 198.487C133.92 199.493 131.317 200.007 128.69 200H20C14.6957 200 9.60859 197.893 5.85786 194.142C2.10714 190.391 0 185.304 0 180V20C0 14.6957 2.10714 9.60859 5.85786 5.85786C9.60859 2.10714 14.6957 0 20 0H180C185.304 0 190.391 2.10714 194.142 5.85786C197.893 9.60859 200 14.6957 200 20ZM24 176H116V128C116 124.817 117.264 121.765 119.515 119.515C121.765 117.264 124.817 116 128 116H176V24H24V176ZM163 140H140V163L163 140Z" fill="#CBD1E5"/>
</svg>
