<svg width="227" height="152" viewBox="0 0 227 152" fill="none" xmlns="http://www.w3.org/2000/svg">
<path d="M12.6111 152C9.038 152 6.04076 150.784 3.61943 148.352C1.1981 145.92 -0.00836377 142.914 4.36371e-05 139.333C4.36371e-05 135.744 1.21071 132.734 3.63204 130.302C6.05338 127.87 9.04641 126.658 12.6111 126.667H214.389C217.962 126.667 220.959 127.883 223.381 130.315C225.802 132.747 227.008 135.753 227 139.333C227 142.922 225.789 145.933 223.368 148.365C220.947 150.797 217.954 152.008 214.389 152H12.6111ZM12.6111 88.6667C9.038 88.6667 6.04076 87.4507 3.61943 85.0187C1.1981 82.5867 -0.00836377 79.5804 4.36371e-05 76C4.36371e-05 72.4111 1.21071 69.4007 3.63204 66.9687C6.05338 64.5367 9.04641 63.3249 12.6111 63.3333H214.389C217.962 63.3333 220.959 64.5493 223.381 66.9813C225.802 69.4133 227.008 72.4196 227 76C227 79.5889 225.789 82.5993 223.368 85.0313C220.947 87.4633 217.954 88.6751 214.389 88.6667H12.6111ZM12.6111 25.3334C9.038 25.3334 6.04076 24.1174 3.61943 21.6854C1.1981 19.2534 -0.00836377 16.2471 4.36371e-05 12.6667C4.36371e-05 9.07782 1.21071 6.06738 3.63204 3.63538C6.05338 1.20338 9.04641 -0.00840061 12.6111 4.38292e-05H214.389C217.962 4.38292e-05 220.959 1.21604 223.381 3.64804C225.802 6.08004 227.008 9.08626 227 12.6667C227 16.2556 225.789 19.266 223.368 21.698C220.947 24.13 217.954 25.3418 214.389 25.3334H12.6111Z" fill="#C0BFBF"/>
</svg>
