<svg width="170" height="171" viewBox="0 0 170 171" fill="none" xmlns="http://www.w3.org/2000/svg">
<path fill-rule="evenodd" clip-rule="evenodd" d="M4.46305 166.287C-0.613764 161.21 -0.613764 152.979 4.46305 147.902L147.652 4.71296C152.729 -0.363853 160.96 -0.363852 166.037 4.71296C171.114 9.78978 171.114 18.0209 166.037 23.0977L22.8478 166.287C17.771 171.364 9.53987 171.364 4.46305 166.287Z" fill="#C0BFBF"/>
<path fill-rule="evenodd" clip-rule="evenodd" d="M4.46304 4.71288C9.53986 -0.363931 17.771 -0.36393 22.8478 4.71289L166.037 147.902C171.114 152.979 171.114 161.21 166.037 166.287C160.96 171.364 152.729 171.364 147.652 166.287L4.46304 23.0977C-0.613779 18.0208 -0.613777 9.7897 4.46304 4.71288Z" fill="#C0BFBF"/>
</svg>
