<svg width="224" height="229" viewBox="0 0 224 229" fill="none" xmlns="http://www.w3.org/2000/svg">
<path d="M157.087 168.887C154.75 166.131 153.582 163.006 153.582 159.511C153.582 156.017 154.75 153.099 157.087 150.758L180.666 127.222H89.2176C85.6064 127.222 82.5772 126.001 80.1301 123.558C77.683 121.116 76.4637 118.096 76.4722 114.5C76.4722 110.895 77.6958 107.872 80.1429 105.429C82.59 102.986 85.6149 101.769 89.2176 101.778H180.666L157.087 78.2417C154.538 75.6972 153.263 72.6736 153.263 69.1707C153.263 65.6679 154.538 62.6485 157.087 60.1125C159.423 57.5681 162.346 56.2958 165.855 56.2958C169.365 56.2958 172.283 57.462 174.612 59.7944L220.495 105.594C221.769 106.867 222.674 108.245 223.21 109.729C223.745 111.213 224.008 112.804 224 114.5C224 116.196 223.736 117.787 223.21 119.271C222.683 120.755 221.778 122.133 220.495 123.406L174.612 169.206C171.85 171.962 168.821 173.183 165.524 172.87C162.227 172.556 159.415 171.228 157.087 168.887ZM25.4907 229C18.4808 229 12.4777 226.506 7.48155 221.519C2.48537 216.532 -0.00847527 210.544 2.1639e-05 203.556V25.4445C2.1639e-05 18.4472 2.49811 12.4551 7.4943 7.46796C12.4905 2.48085 18.4893 -0.00845988 25.4907 2.15997e-05H101.963C105.574 2.15997e-05 108.603 1.22136 111.05 3.66402C113.497 6.10669 114.717 9.12609 114.708 12.7222C114.708 16.3269 113.485 19.3505 111.038 21.7932C108.591 24.2358 105.566 25.4529 101.963 25.4445H25.4907V203.556H101.963C105.574 203.556 108.603 204.777 111.05 207.22C113.497 209.662 114.717 212.682 114.708 216.278C114.708 219.882 113.485 222.906 111.038 225.349C108.591 227.791 105.566 229.008 101.963 229H25.4907Z" fill="#C0BFBF"/>
</svg>
