<svg width="204" height="229" viewBox="0 0 204 229" fill="none" xmlns="http://www.w3.org/2000/svg">
<path d="M140.245 214.722C140.755 218.538 139.48 222.609 136.548 225.28C135.368 226.459 133.967 227.395 132.425 228.033C130.883 228.671 129.23 229 127.56 229C125.891 229 124.237 228.671 122.695 228.033C121.153 227.395 119.752 226.459 118.573 225.28L67.4523 174.271C66.0619 172.915 65.0047 171.256 64.3634 169.424C63.722 167.593 63.5139 165.638 63.7553 163.713V98.5838L2.69125 20.6072C0.621041 17.9554 -0.313078 14.5937 0.0930054 11.2567C0.499089 7.9198 2.21236 4.8789 4.85845 2.79851C7.28062 1.01764 9.95774 0 12.7624 0H191.238C194.042 0 196.719 1.01764 199.142 2.79851C201.788 4.8789 203.501 7.9198 203.907 11.2567C204.313 14.5937 203.379 17.9554 201.309 20.6072L140.245 98.5838V214.722ZM38.7688 25.441L89.2518 89.8067V160.024L114.748 185.465V89.6795L165.231 25.441H38.7688Z" fill="#333333"/>
</svg>
