<svg width="230" height="229" viewBox="0 0 230 229" fill="none" xmlns="http://www.w3.org/2000/svg">
<path d="M207.784 225.417L134.602 152.449C128.068 157.661 120.554 161.788 112.06 164.828C103.565 167.868 94.5265 169.388 84.9432 169.388C61.2027 169.388 41.1125 161.188 24.6727 144.788C8.23295 128.388 0.00871212 108.356 0 84.6942C0 61.0232 8.22424 40.992 24.6727 24.6004C41.1212 8.20882 61.2114 0.00868658 84.9432 0C108.684 0 128.774 8.20013 145.214 24.6004C161.653 41.0007 169.878 61.0319 169.886 84.6942C169.886 94.2494 168.362 103.262 165.312 111.731C162.263 120.201 158.125 127.693 152.898 134.208L226.406 207.501C228.802 209.889 230 212.821 230 216.296C230 219.77 228.693 222.811 226.08 225.417C223.684 227.806 220.634 229 216.932 229C213.229 229 210.18 227.806 207.784 225.417ZM84.9432 143.329C101.278 143.329 115.166 137.626 126.605 126.22C138.044 114.815 143.759 100.973 143.75 84.6942C143.75 68.4068 138.03 54.5604 126.591 43.1549C115.152 31.7494 101.27 26.0511 84.9432 26.0597C68.608 26.0597 54.7208 31.7625 43.2818 43.168C31.8428 54.5734 26.1277 68.4155 26.1364 84.6942C26.1364 100.982 31.8559 114.828 43.2949 126.233C54.7339 137.639 68.6167 143.337 84.9432 143.329Z" fill="white"/>
</svg>
